<svg width="76" height="48" viewBox="0 0 76 48" fill="none" xmlns="http://www.w3.org/2000/svg">
<rect width="76" height="48" rx="10" fill="#00C8DC"/>
<rect x="0.5" y="0.5" width="75" height="47" rx="9.5" stroke="#F8F8F8" stroke-opacity="0.1"/>
<path d="M40.3817 23.0822H41.3644C41.7647 23.0822 42.0927 23.4102 42.0927 23.8105V29.5794H45.0406V23.0461C45.0406 21.4075 43.7119 20.0984 42.0927 20.0984H37.4339V25.267C37.4339 26.1593 36.6875 26.886 35.7771 26.868C34.9028 26.8318 34.2121 26.1036 34.2121 25.2294V20.0789H31.2266V25.2474C31.2266 27.7768 33.2837 29.8156 35.8132 29.8156C38.3427 29.8156 40.3817 27.7587 40.3817 25.2474V23.0822Z" fill="white"/>
<path d="M43.6224 18.9302C44.7078 18.9302 45.5876 18.0504 45.5876 16.9651C45.5876 15.8798 44.7078 15 43.6224 15C42.5371 15 41.6572 15.8798 41.6572 16.9651C41.6572 18.0504 42.5371 18.9302 43.6224 18.9302Z" fill="white"/>
<path d="M49.5201 29.5948V24.4082C49.5201 23.5159 50.2484 22.8072 51.1212 22.8072C51.9939 22.8072 52.7222 23.5354 52.7222 24.4082V29.5948H55.7076V24.4082C55.7076 21.8788 53.6506 19.84 51.1212 19.84C48.5917 19.84 46.5527 21.8969 46.5527 24.4082V29.5948H49.5186H49.5201Z" fill="white"/>
<path d="M25.0138 19.8242C22.2631 19.8242 20 22.0873 20 24.8378C20 27.5883 22.2451 29.8514 25.0138 29.8514C25.7436 29.8514 26.4764 29.6227 27.0618 29.2932V33.9998H30.0276V24.8378C30.0276 22.0873 27.7645 19.8242 25.0138 19.8242ZM25.0138 27.0121C23.813 27.0121 22.838 26.0385 22.838 24.8363C22.838 23.6341 23.8115 22.6605 25.0138 22.6605C26.2161 22.6605 27.1897 23.6341 27.1897 24.8363C27.1897 26.0385 26.2161 27.0121 25.0138 27.0121Z" fill="white"/>
</svg>
